# xmcd CD database file
#
# Track frame offsets:
#	150
#	4560
#	13110
#	29297
#	34765
#	47607
#	63052
#	82620
#	83985
#	92000
#	110392
#	119229
#	129850
#	139142
#	142482
#	151135
#	164190
#	168822
#	177867
#	182322
#	206027
#	216412
#	223657
#	235540
#	247980
#	255430
#
# Disc length: 3643 seconds
#
# Revision: 1
# Processed by: cddbd v1.5.1PL0 Copyright (c) Steve Scherf et al.
# Submitted via: CDex 1.50
#
DISCID=5a0e391a
DTITLE=Frank Sinatra - January 2 - October 30, 1946
DYEAR=1994
DGENRE=Jazz
TTITLE0=Introduction
TTITLE1=Chickery Chick
TTITLE2=Dearest Darling
TTITLE3=Commercial
TTITLE4=Dr. Lawyer, Indian Chief
TTITLE5=It's Been a Long, Long Time
TTITLE6=Waitin' for the Train to Come in
TTITLE7=Commercial
TTITLE8=You Brought a New Kind of Love to Me
TTITLE9=Over the Rainbow
TTITLE10=Closing
TTITLE11=Ole Buttermilk Sky
TTITLE12=This Time
TTITLE13=Commercial
TTITLE14=Why Does it Get So Late So Early
TTITLE15=Comeds Skit
TTITLE16=You'll Always Be the One I Love
TTITLE17=Comedy Continued
TTITLE18=Love Is Just around the Corner
TTITLE19=Embraceable You
TTITLE20=This Is Always
TTITLE21=The Whole World Is Singing My Song
TTITLE22=Maybe You'll Be There
TTITLE23=April Showers
TTITLE24=I'm Sorry Dear
TTITLE25=What Am I Gonna Do about You
EXTD=YEAR: 1994
EXTT0=
EXTT1=
EXTT2=
EXTT3=
EXTT4=
EXTT5=
EXTT6=
EXTT7=
EXTT8=
EXTT9=
EXTT10=
EXTT11=
EXTT12=
EXTT13=
EXTT14=
EXTT15=
EXTT16=
EXTT17=
EXTT18=
EXTT19=
EXTT20=
EXTT21=
EXTT22=
EXTT23=
EXTT24=
EXTT25=
PLAYORDER=
